<?xml version="1.0" standalone="no"?>
<!DOCTYPE svg PUBLIC "-//W3C//DTD SVG 20010904//EN"
 "http://www.w3.org/TR/2001/REC-SVG-20010904/DTD/svg10.dtd">
<svg version="1.0" xmlns="http://www.w3.org/2000/svg"
 width="150.000000pt" height="150.000000pt" viewBox="0 0 150.000000 150.000000"
 preserveAspectRatio="xMidYMid meet">
<metadata>
Created by potrace 1.11, written by Peter Selinger 2001-2013
</metadata>
<g transform="translate(0.000000,150.000000) scale(0.100000,-0.100000)"
fill="#000000" stroke="none">
<path d="M650 1235 c-4 -86 -15 -151 -26 -158 -8 -4 -14 -17 -14 -27 0 -11 -3
-20 -7 -20 -17 0 -83 -70 -103 -110 -50 -97 -53 -253 -9 -389 19 -60 76 -161
90 -161 4 0 -8 -16 -27 -35 -18 -19 -38 -35 -44 -35 -7 0 -25 -8 -41 -17 -26
-15 -32 -16 -52 -3 -31 19 -131 22 -175 3 -90 -37 -152 -122 -152 -210 0 -80
-70 -73 711 -73 l699 0 0 138 0 137 -52 23 c-93 41 -210 25 -276 -37 l-23 -22
-14 34 c-14 33 -54 61 -100 69 -11 1 -28 13 -38 25 -11 14 -35 26 -58 29 -21
4 -39 10 -39 15 0 5 3 9 8 9 13 0 66 142 56 152 -2 2 -6 59 -9 126 -5 131 -17
194 -48 257 -25 53 -53 76 -129 109 -63 27 -64 29 -83 88 -18 56 -44 104 -45
83z"/>
</g>
</svg>
